:FULLY-SPECIFIED
:FORCE-ALL-JOINTS-BE-3DOF
:DEGREES
68
root 6.96424 16.6817 -27.2198 -0.387045 3.17076 1.7614
lfemur -13.3578 7.82361 -21.2389
ltibia 35.7409 -0 0
lfoot -28.6674 -4.16533 -0.811533
ltoes 35.2732 -0 0
rfemur -55.1587 -19.0355 32.1387
rtibia 63.6668 -0 0
rfoot -6.37523 7.40125 4.23851
rtoes -5.9061 0 0
lowerback 6.67733 -0.0357798 -6.57146
upperback 1.22631 -0.548133 0.795541
thorax -2.26885 -0.1526 5.03774
lowerneck -11.0896 -1.50019 0.744518
upperneck -0.616585 -2.12232 0.978145
head 1.69002 -1.02345 0.109098
lclavicle -5.53115e-14 -1.48525e-14 -1.46251e-29
lhumerus -41.7082 -16.7538 94.9384
lradius 43.4667 -0 0
lwrist 10.0045 0 0
lhand -1.14997 5.05451 0.186405
lfingers 7.12502 -0 0
lthumb 24.4478 33.0902 0.0396333
rclavicle -5.53115e-14 -1.48525e-14 -1.46251e-29
rhumerus -43.093 -15.6761 -72.588
rradius 61.2813 -0 0
rwrist -14.0031 0 0
rhand -26.5201 -24.5421 0.0521484
rfingers 7.12502 -0 0
rthumb 0.0434314 -54.5066 0.0503448
69
root 6.97566 16.679 -27.2062 -0.534448 3.2746 1.82116
lfemur -13.2543 7.91047 -21.2446
ltibia 35.7489 -0 0
lfoot -28.5119 -4.29952 -0.812443
ltoes 35.2185 -0 0
rfemur -55.784 -19.2614 32.4489
rtibia 64.1157 -0 0
rfoot -5.98969 7.69074 4.24337
rtoes -6.34415 0 0
lowerback 6.82893 -0.0915331 -6.60214
upperback 1.28813 -0.634275 0.757012
thorax -2.27656 -0.196636 5.02313
lowerneck -11.1094 -1.48817 0.724511
upperneck -0.603725 -2.10538 1.01558
head 1.6985 -1.01385 0.125003
lclavicle -5.44709e-14 -1.44075e-14 -1.46414e-29
lhumerus -41.6997 -16.8515 94.871
lradius 43.6033 -0 0
lwrist 10.1217 0 0
lhand -0.98613 5.0837 0.186614
lfingers 7.12502 -0 0
lthumb 24.6046 33.0967 0.0396777
rclavicle -5.44709e-14 -1.44075e-14 -1.46414e-29
rhumerus -43.1001 -15.8524 -72.3903
rradius 61.5935 -0 0
rwrist -14.3759 0 0
rhand -26.5597 -24.5758 0.0522067
rfingers 7.12502 -0 0
rthumb 0.00522598 -54.5403 0.050401
70
root 6.98708 16.6763 -27.1927 -0.681758 3.37858 1.88066
lfemur -13.1508 7.99734 -21.2501
ltibia 35.7569 -0 0
lfoot -28.3565 -4.43372 -0.812989
ltoes 35.1637 -0 0
rfemur -56.4114 -19.4841 32.7622
rtibia 64.5647 -0 0
rfoot -5.60412 7.98026 4.24628
rtoes -6.7822 0 0
lowerback 6.98056 -0.147205 -6.63296
upperback 1.35001 -0.720375 0.718388
thorax -2.28427 -0.240673 5.00852
lowerneck -11.1293 -1.47617 0.7045
upperneck -0.590853 -2.08844 1.05301
head 1.70698 -1.00426 0.14091
lclavicle -5.36304e-14 -1.39624e-14 -1.46512e-29
lhumerus -41.6911 -16.9491 94.8035
lradius 43.7399 -0 0
lwrist 10.2389 0 0
lhand -0.82229 5.11289 0.186739
lfingers 7.12502 -0 0
lthumb 24.7615 33.1032 0.0397043
rclavicle -5.36304e-14 -1.39624e-14 -1.46512e-29
rhumerus -43.1078 -16.0286 -72.1924
rradius 61.9056 -0 0
rwrist -14.7487 0 0
rhand -26.5992 -24.6096 0.0522416
rfingers 7.12502 -0 0
rthumb -0.0329795 -54.574 0.0504347
71
root 6.9985 16.6736 -27.1791 -0.828975 3.48272 1.93989
lfemur -13.0472 8.08423 -21.2555
ltibia 35.7649 -0 0
lfoot -28.201 -4.56792 -0.813171
ltoes 35.1089 -0 0
rfemur -57.0409 -19.7036 33.0785
rtibia 65.0136 -0 0
rfoot -5.21855 8.2698 4.24725
rtoes -7.22025 0 0
lowerback 7.13222 -0.202795 -6.66393
upperback 1.41195 -0.806434 0.679671
thorax -2.29196 -0.284713 4.99392
lowerneck -11.1492 -1.46416 0.684485
upperneck -0.577971 -2.07151 1.09045
head 1.71546 -0.994663 0.156818
lclavicle -5.27898e-14 -1.35174e-14 -1.46545e-29
lhumerus -41.6824 -17.0468 94.7359
lradius 43.8764 -0 0
lwrist 10.3561 0 0
lhand -0.65845 5.14209 0.186781
lfingers 7.12502 -0 0
lthumb 24.9183 33.1096 0.0397132
rclavicle -5.27898e-14 -1.35174e-14 -1.46545e-29
rhumerus -43.1162 -16.2048 -71.9944
rradius 62.2177 -0 0
rwrist -15.1215 0 0
rhand -26.6388 -24.6433 0.0522532
rfingers 7.12502 -0 0
rthumb -0.071185 -54.6077 0.0504459
72
root 7.00992 16.671 -27.1655 -0.976102 3.58702 1.99887
lfemur -12.9437 8.17112 -21.2607
ltibia 35.773 -0 0
lfoot -28.0456 -4.70211 -0.812989
ltoes 35.0541 -0 0
rfemur -57.6726 -19.9197 33.3977
rtibia 65.4626 -0 0
rfoot -4.83298 8.55934 4.24628
rtoes -7.6583 0 0
lowerback 7.28391 -0.258303 -6.69505
upperback 1.47396 -0.89245 0.64086
thorax -2.29965 -0.328755 4.97932
lowerneck -11.169 -1.45217 0.664466
upperneck -0.565078 -2.05459 1.12789
head 1.72395 -0.985072 0.172727
lclavicle -5.19492e-14 -1.30724e-14 -1.46512e-29
lhumerus -41.6735 -17.1445 94.6683
lradius 44.013 -0 0
lwrist 10.4732 0 0
lhand -0.49461 5.17128 0.186739
lfingers 7.12502 -0 0
lthumb 25.0751 33.1161 0.0397043
rclavicle -5.19492e-14 -1.30724e-14 -1.46512e-29
rhumerus -43.1252 -16.381 -71.7961
rradius 62.5299 -0 0
rwrist -15.4943 0 0
rhand -26.6784 -24.677 0.0522416
rfingers 7.12502 -0 0
rthumb -0.10939 -54.6414 0.0504347
73
root 7.02134 16.6683 -27.152 -1.12314 3.69146 2.05758
lfemur -12.8402 8.25802 -21.2657
ltibia 35.781 -0 0
lfoot -27.8902 -4.83631 -0.812443
ltoes 34.9993 -0 0
rfemur -58.3064 -20.1325 33.7199
rtibia 65.9116 -0 0
rfoot -4.44741 8.84886 4.24337
rtoes -8.09635 0 0
lowerback 7.43563 -0.313729 -6.72631
upperback 1.53602 -0.978425 0.601955
thorax -2.30732 -0.372798 4.96473
lowerneck -11.1889 -1.44018 0.644442
upperneck -0.552173 -2.03768 1.16534
head 1.73244 -0.975483 0.188638
lclavicle -5.11086e-14 -1.26273e-14 -1.46414e-29
lhumerus -41.6645 -17.2421 94.6006
lradius 44.1496 -0 0
lwrist 10.5904 0 0
lhand -0.33077 5.20047 0.186614
lfingers 7.12502 -0 0
lthumb 25.232 33.1226 0.0396777
rclavicle -5.11086e-14 -1.26273e-14 -1.46414e-29
rhumerus -43.1349 -16.5571 -71.5976
rradius 62.842 -0 0
rwrist -15.8671 0 0
rhand -26.7179 -24.7108 0.0522067
rfingers 7.12502 -0 0
rthumb -0.147596 -54.6751 0.050401
74
root 7.03276 16.6656 -27.1384 -1.27008 3.79605 2.11603
lfemur -12.7366 8.34493 -21.2706
ltibia 35.789 -0 0
lfoot -27.7347 -4.9705 -0.811533
ltoes 34.9446 -0 0
rfemur -58.9423 -20.342 34.045
rtibia 66.3605 -0 0
rfoot -4.06187 9.13835 4.23851
rtoes -8.5344 0 0
lowerback 7.58738 -0.369071 -6.75772
upperback 1.59814 -1.06436 0.562956
thorax -2.31498 -0.416844 4.95015
lowerneck -11.2088 -1.4282 0.624415
upperneck -0.539258 -2.02078 1.20279
head 1.74093 -0.965896 0.20455
lclavicle -5.02681e-14 -1.21823e-14 -1.46251e-29
lhumerus -41.6554 -17.3397 94.5329
lradius 44.2862 -0 0
lwrist 10.7076 0 0
lhand -0.16693 5.22966 0.186405
lfingers 7.12502 -0 0
lthumb 25.3888 33.1291 0.0396333
rclavicle -5.02681e-14 -1.21823e-14 -1.46251e-29
rhumerus -43.1452 -16.7333 -71.3989
rradius 63.1542 -0 0
rwrist -16.2399 0 0
rhand -26.7575 -24.7445 0.0521484
rfingers 7.12502 -0 0
rthumb -0.185801 -54.7088 0.0503448
75
root 7.04418 16.663 -27.1248 -1.41694 3.90079 2.17422
lfemur -12.633 8.43185 -21.2753
ltibia 35.797 -0 0
lfoot -27.5793 -5.10469 -0.810258
ltoes 34.8898 -0 0
rfemur -59.5804 -20.548 34.373
rtibia 66.8095 -0 0
rfoot -3.67636 9.42781 4.23171
rtoes -8.97244 0 0
lowerback 7.73916 -0.42433 -6.78928
upperback 1.66032 -1.15025 0.523863
thorax -2.32263 -0.460892 4.93557
lowerneck -11.2287 -1.41623 0.604384
upperneck -0.526332 -2.00388 1.24024
head 1.74942 -0.956312 0.220463
lclavicle -4.94275e-14 -1.17372e-14 -1.46022e-29
lhumerus -41.6462 -17.4373 94.4652
lradius 44.4228 -0 0
lwrist 10.8248 0 0
lhand -0.00308964 5.25886 0.186113
lfingers 7.12502 -0 0
lthumb 25.5457 33.1356 0.0395712
rclavicle -4.94275e-14 -1.17372e-14 -1.46022e-29
rhumerus -43.1562 -16.9094 -71.2
rradius 63.4663 -0 0
rwrist -16.6127 0 0
rhand -26.797 -24.7782 0.0520669
rfingers 7.12502 -0 0
rthumb -0.224007 -54.7426 0.0502661
76
root 7.05561 16.6603 -27.1112 -1.56371 4.00568 2.23215
lfemur -12.5294 8.51878 -21.2799
ltibia 35.805 -0 0
lfoot -27.4238 -5.23888 -0.80862
ltoes 34.835 -0 0
rfemur -60.2206 -20.7506 34.7039
rtibia 67.2584 -0 0
rfoot -3.29089 9.7172 4.22297
rtoes -9.41049 0 0
lowerback 7.89098 -0.479506 -6.82098
upperback 1.72256 -1.23609 0.484675
thorax -2.33027 -0.504941 4.921
lowerneck -11.2486 -1.40426 0.584348
upperneck -0.513395 -1.987 1.2777
head 1.75792 -0.94673 0.236378
lclavicle -4.85869e-14 -1.12922e-14 -1.45729e-29
lhumerus -41.6368 -17.535 94.3974
lradius 44.5594 -0 0
lwrist 10.942 0 0
lhand 0.16075 5.28805 0.185737
lfingers 7.12502 -0 0
lthumb 25.7025 33.1421 0.0394914
rclavicle -4.85869e-14 -1.12922e-14 -1.45729e-29
rhumerus -43.1678 -17.0854 -71.0008
rradius 63.7784 -0 0
rwrist -16.9854 0 0
rhand -26.8366 -24.8119 0.0519621
rfingers 7.12502 -0 0
rthumb -0.262212 -54.7763 0.0501649
